<mxfile host="app.diagrams.net" modified="2023-05-25T14:30:58.939Z" agent="Mozilla/5.0 (Windows NT 10.0; Win64; x64) AppleWebKit/537.36 (KHTML, like Gecko) Chrome/113.0.0.0 Safari/537.36 Edg/113.0.1774.50" etag="n402S9i7DHFDYHWyvbLX" version="21.3.2" type="device">
  <diagram name="第 1 页" id="_HAgdRkq3kSCtI3j7kdd">
    <mxGraphModel dx="825" dy="541" grid="0" gridSize="10" guides="1" tooltips="1" connect="1" arrows="1" fold="1" page="1" pageScale="1" pageWidth="827" pageHeight="1169" math="0" shadow="0">
      <root>
        <mxCell id="0" />
        <mxCell id="1" parent="0" />
        <mxCell id="BYR2KeRBXnYKR4DnQvIY-14" value="语义解析阶段" style="text;html=1;strokeColor=none;fillColor=default;align=center;verticalAlign=middle;whiteSpace=wrap;rounded=0;" parent="1" vertex="1">
          <mxGeometry x="348" y="60" width="80" height="30" as="geometry" />
        </mxCell>
        <mxCell id="BYR2KeRBXnYKR4DnQvIY-12" value="" style="rounded=1;whiteSpace=wrap;html=1;fillColor=#fff2cc;strokeColor=#d6b656;" parent="1" vertex="1">
          <mxGeometry x="80" y="90" width="590" height="110" as="geometry" />
        </mxCell>
        <mxCell id="BYR2KeRBXnYKR4DnQvIY-11" value="" style="rounded=1;whiteSpace=wrap;html=1;fillColor=#ffe6cc;strokeColor=#d79b00;" parent="1" vertex="1">
          <mxGeometry x="80" y="240" width="200" height="110" as="geometry" />
        </mxCell>
        <mxCell id="BYR2KeRBXnYKR4DnQvIY-1" value="知识图谱（KG）" style="shape=cylinder3;whiteSpace=wrap;html=1;boundedLbl=1;backgroundOutline=1;size=15;fillColor=#dae8fc;strokeColor=#6c8ebf;" parent="1" vertex="1">
          <mxGeometry x="140" y="400" width="80" height="80" as="geometry" />
        </mxCell>
        <mxCell id="BYR2KeRBXnYKR4DnQvIY-2" value="RDF 模板" style="rounded=1;whiteSpace=wrap;html=1;" parent="1" vertex="1">
          <mxGeometry x="90" y="280" width="80" height="40" as="geometry" />
        </mxCell>
        <mxCell id="BYR2KeRBXnYKR4DnQvIY-3" value="问题生成" style="rounded=1;whiteSpace=wrap;html=1;" parent="1" vertex="1">
          <mxGeometry x="190" y="280" width="80" height="40" as="geometry" />
        </mxCell>
        <mxCell id="ioGBoC5dE54JVlJa6CXK-7" value="" style="rounded=1;whiteSpace=wrap;html=1;" vertex="1" parent="1">
          <mxGeometry x="410" y="120" width="100" height="70" as="geometry" />
        </mxCell>
        <mxCell id="BYR2KeRBXnYKR4DnQvIY-7" value="MLP分类器" style="rounded=1;whiteSpace=wrap;html=1;" parent="1" vertex="1">
          <mxGeometry x="420" y="140" width="80" height="40" as="geometry" />
        </mxCell>
        <mxCell id="BYR2KeRBXnYKR4DnQvIY-9" value="槽填充和&lt;br&gt;查询执行" style="rounded=1;whiteSpace=wrap;html=1;" parent="1" vertex="1">
          <mxGeometry x="560" y="135" width="80" height="40" as="geometry" />
        </mxCell>
        <mxCell id="BYR2KeRBXnYKR4DnQvIY-13" value="离&lt;br&gt;线&lt;br&gt;阶&lt;br&gt;段" style="text;html=1;strokeColor=none;fillColor=none;align=center;verticalAlign=middle;whiteSpace=wrap;rounded=0;" parent="1" vertex="1">
          <mxGeometry x="40" y="260" width="40" height="80" as="geometry" />
        </mxCell>
        <mxCell id="BYR2KeRBXnYKR4DnQvIY-15" value="" style="rounded=1;whiteSpace=wrap;html=1;" parent="1" vertex="1">
          <mxGeometry x="310" y="240" width="60" height="100" as="geometry" />
        </mxCell>
        <mxCell id="BYR2KeRBXnYKR4DnQvIY-16" value="实体和类索引" style="rounded=1;whiteSpace=wrap;html=1;" parent="1" vertex="1">
          <mxGeometry x="320" y="250" width="60" height="100" as="geometry" />
        </mxCell>
        <mxCell id="BYR2KeRBXnYKR4DnQvIY-19" value="" style="edgeStyle=orthogonalEdgeStyle;rounded=0;orthogonalLoop=1;jettySize=auto;html=1;exitX=0.5;exitY=0;exitDx=0;exitDy=0;entryX=0.5;entryY=1;entryDx=0;entryDy=0;" parent="1" target="BYR2KeRBXnYKR4DnQvIY-11" edge="1">
          <mxGeometry relative="1" as="geometry">
            <mxPoint x="179.5" y="400" as="sourcePoint" />
            <mxPoint x="180.5" y="363" as="targetPoint" />
          </mxGeometry>
        </mxCell>
        <mxCell id="BYR2KeRBXnYKR4DnQvIY-23" value="" style="endArrow=classic;html=1;rounded=0;entryX=0.879;entryY=1.002;entryDx=0;entryDy=0;entryPerimeter=0;" parent="1" target="BYR2KeRBXnYKR4DnQvIY-12" edge="1">
          <mxGeometry width="50" height="50" relative="1" as="geometry">
            <mxPoint x="220" y="440" as="sourcePoint" />
            <mxPoint x="660" y="440" as="targetPoint" />
            <Array as="points">
              <mxPoint x="600" y="440" />
            </Array>
          </mxGeometry>
        </mxCell>
        <mxCell id="BYR2KeRBXnYKR4DnQvIY-24" value="" style="endArrow=classic;html=1;rounded=0;entryX=0.37;entryY=1.006;entryDx=0;entryDy=0;entryPerimeter=0;" parent="1" target="BYR2KeRBXnYKR4DnQvIY-16" edge="1">
          <mxGeometry width="50" height="50" relative="1" as="geometry">
            <mxPoint x="342" y="440" as="sourcePoint" />
            <mxPoint x="400" y="390" as="targetPoint" />
          </mxGeometry>
        </mxCell>
        <mxCell id="ioGBoC5dE54JVlJa6CXK-5" value="" style="rounded=1;whiteSpace=wrap;html=1;" vertex="1" parent="1">
          <mxGeometry x="115" y="120" width="90" height="70" as="geometry" />
        </mxCell>
        <mxCell id="BYR2KeRBXnYKR4DnQvIY-50" value="" style="endArrow=classic;html=1;rounded=0;" parent="1" edge="1">
          <mxGeometry width="50" height="50" relative="1" as="geometry">
            <mxPoint x="340" y="240" as="sourcePoint" />
            <mxPoint x="340" y="200" as="targetPoint" />
          </mxGeometry>
        </mxCell>
        <mxCell id="BYR2KeRBXnYKR4DnQvIY-51" value="" style="endArrow=classic;html=1;rounded=0;" parent="1" edge="1">
          <mxGeometry width="50" height="50" relative="1" as="geometry">
            <mxPoint x="179.72" y="240" as="sourcePoint" />
            <mxPoint x="179.72" y="200" as="targetPoint" />
          </mxGeometry>
        </mxCell>
        <mxCell id="ioGBoC5dE54JVlJa6CXK-1" value="XGBoost&lt;br&gt;分类器" style="rounded=1;whiteSpace=wrap;html=1;" vertex="1" parent="1">
          <mxGeometry x="125" y="145" width="70" height="30" as="geometry" />
        </mxCell>
        <mxCell id="ioGBoC5dE54JVlJa6CXK-6" value="" style="rounded=1;whiteSpace=wrap;html=1;" vertex="1" parent="1">
          <mxGeometry x="270" y="120" width="100" height="70" as="geometry" />
        </mxCell>
        <mxCell id="ioGBoC5dE54JVlJa6CXK-2" value="问题分类" style="text;html=1;strokeColor=none;fillColor=none;align=center;verticalAlign=middle;whiteSpace=wrap;rounded=0;" vertex="1" parent="1">
          <mxGeometry x="130" y="90" width="60" height="30" as="geometry" />
        </mxCell>
        <mxCell id="ioGBoC5dE54JVlJa6CXK-3" value="实体/类链接" style="text;html=1;strokeColor=none;fillColor=none;align=center;verticalAlign=middle;whiteSpace=wrap;rounded=0;" vertex="1" parent="1">
          <mxGeometry x="285" y="90" width="70" height="30" as="geometry" />
        </mxCell>
        <mxCell id="ioGBoC5dE54JVlJa6CXK-4" value="语义相似性" style="rounded=1;whiteSpace=wrap;html=1;" vertex="1" parent="1">
          <mxGeometry x="280" y="145" width="80" height="30" as="geometry" />
        </mxCell>
        <mxCell id="ioGBoC5dE54JVlJa6CXK-8" value="关系抽取" style="text;html=1;strokeColor=none;fillColor=none;align=center;verticalAlign=middle;whiteSpace=wrap;rounded=0;" vertex="1" parent="1">
          <mxGeometry x="430" y="90" width="60" height="30" as="geometry" />
        </mxCell>
        <mxCell id="ioGBoC5dE54JVlJa6CXK-9" value="" style="endArrow=classic;html=1;rounded=0;exitX=1;exitY=0.5;exitDx=0;exitDy=0;entryX=0;entryY=0.5;entryDx=0;entryDy=0;" edge="1" parent="1" source="ioGBoC5dE54JVlJa6CXK-5" target="ioGBoC5dE54JVlJa6CXK-6">
          <mxGeometry width="50" height="50" relative="1" as="geometry">
            <mxPoint x="220" y="150" as="sourcePoint" />
            <mxPoint x="270" y="100" as="targetPoint" />
          </mxGeometry>
        </mxCell>
        <mxCell id="ioGBoC5dE54JVlJa6CXK-10" value="" style="endArrow=classic;html=1;rounded=0;exitX=1;exitY=0.5;exitDx=0;exitDy=0;entryX=0;entryY=0.5;entryDx=0;entryDy=0;" edge="1" parent="1" target="ioGBoC5dE54JVlJa6CXK-7">
          <mxGeometry width="50" height="50" relative="1" as="geometry">
            <mxPoint x="370" y="154.58" as="sourcePoint" />
            <mxPoint x="435" y="154.58" as="targetPoint" />
          </mxGeometry>
        </mxCell>
        <mxCell id="ioGBoC5dE54JVlJa6CXK-11" value="" style="endArrow=classic;html=1;rounded=0;exitX=1;exitY=0.5;exitDx=0;exitDy=0;" edge="1" parent="1">
          <mxGeometry width="50" height="50" relative="1" as="geometry">
            <mxPoint x="510" y="154.57999999999998" as="sourcePoint" />
            <mxPoint x="560" y="155" as="targetPoint" />
          </mxGeometry>
        </mxCell>
      </root>
    </mxGraphModel>
  </diagram>
</mxfile>
